<svg width="71" height="46" viewBox="0 0 71 46" fill="none" xmlns="http://www.w3.org/2000/svg">
<g clip-path="url(#clip0_1_16)">
<path d="M0.199997 19.63C0.199997 19.57 0.199997 19.53 0.209997 19.5L5.64 0.92C5.7 0.73 5.83 0.64 6.03 0.64H11.19C11.39 0.64 11.52 0.73 11.58 0.92L17.04 19.51C17.04 19.51 17.05 19.58 17.05 19.64C17.05 19.81 16.95 19.89 16.76 19.89H12.59C12.4 19.89 12.28 19.79 12.23 19.6L11.34 16.17H5.83L4.94 19.6C4.9 19.79 4.78 19.89 4.56 19.89H0.489997C0.299997 19.89 0.199997 19.81 0.199997 19.64V19.63ZM10.32 12.23L8.58 5.45L6.83 12.23H10.32Z" fill="#232F3E"/>
<path d="M18.09 19.79C18.03 19.73 18 19.65 18 19.55V0.97C18 0.87 18.03 0.79 18.09 0.73C18.15 0.67 18.23 0.64 18.33 0.64H22.17C22.27 0.64 22.35 0.67 22.41 0.73C22.47 0.79 22.5 0.87 22.5 0.97V19.54C22.5 19.64 22.47 19.72 22.41 19.78C22.35 19.84 22.27 19.87 22.17 19.87H18.33C18.23 19.87 18.15 19.84 18.09 19.78V19.79Z" fill="#232F3E"/>
<path d="M24.33 19.79C24.27 19.73 24.24 19.65 24.24 19.55V0.97C24.24 0.87 24.27 0.79 24.33 0.73C24.39 0.67 24.47 0.64 24.57 0.64H28.41C28.51 0.64 28.59 0.67 28.65 0.73C28.71 0.79 28.74 0.87 28.74 0.97V19.54C28.74 19.64 28.71 19.72 28.65 19.78C28.59 19.84 28.51 19.87 28.41 19.87H24.57C24.47 19.87 24.39 19.84 24.33 19.78V19.79Z" fill="#232F3E"/>
<path d="M30.54 1.09C30.75 0.75 31.05 0.49 31.43 0.29C31.81 0.09 32.25 0 32.74 0C33.23 0 33.67 0.1 34.05 0.29C34.43 0.48 34.73 0.75 34.95 1.09C35.16 1.43 35.27 1.81 35.27 2.24C35.27 2.67 35.16 3.05 34.95 3.39C34.74 3.73 34.44 3.99 34.05 4.19C33.67 4.38 33.23 4.48 32.74 4.48C32.25 4.48 31.81 4.38 31.43 4.19C31.05 4 30.75 3.73 30.54 3.39C30.33 3.05 30.22 2.67 30.22 2.24C30.22 1.81 30.33 1.43 30.54 1.09ZM30.57 19.79C30.51 19.73 30.48 19.65 30.48 19.55V5.99C30.48 5.89 30.51 5.81 30.57 5.75C30.63 5.69 30.71 5.66 30.81 5.66H34.65C34.75 5.66 34.83 5.69 34.89 5.75C34.95 5.81 34.98 5.89 34.98 5.99V19.55C34.98 19.65 34.95 19.73 34.89 19.79C34.83 19.85 34.75 19.88 34.65 19.88H30.81C30.71 19.88 30.63 19.85 30.57 19.79Z" fill="#232F3E"/>
<path d="M39.58 19.34C38.54 18.72 37.74 17.84 37.17 16.71C36.6 15.57 36.31 14.26 36.31 12.77C36.31 11.28 36.59 9.98 37.14 8.84C37.69 7.7 38.47 6.83 39.48 6.21C40.49 5.59 41.65 5.28 42.96 5.28C44.27 5.28 45.34 5.58 46.28 6.19C47.23 6.8 47.95 7.66 48.46 8.78C48.97 9.9 49.22 11.21 49.22 12.71C49.22 13.05 49.2 13.36 49.16 13.63C49.13 13.83 49.02 13.94 48.81 13.94H40.76C40.89 14.83 41.17 15.51 41.59 15.98C42.02 16.45 42.58 16.69 43.27 16.69C43.8 16.69 44.27 16.56 44.68 16.31C45.09 16.06 45.41 15.7 45.65 15.24C45.72 15.1 45.81 15.03 45.91 15.03C45.97 15.03 46.03 15.05 46.09 15.09L48.66 16.42C48.8 16.49 48.87 16.59 48.87 16.7C48.87 16.75 48.86 16.8 48.83 16.85C48.3 17.97 47.55 18.82 46.58 19.4C45.61 19.98 44.47 20.27 43.15 20.27C41.83 20.27 40.59 19.96 39.55 19.34H39.58ZM45.18 11.16C45.04 10.34 44.78 9.73 44.41 9.3C44.03 8.88 43.55 8.67 42.96 8.67C42.37 8.67 41.87 8.88 41.49 9.3C41.11 9.72 40.86 10.34 40.72 11.16H45.18Z" fill="#232F3E"/>
<path d="M52.23 19.42C51.24 18.85 50.46 18 49.89 16.86C49.86 16.8 49.85 16.75 49.85 16.69C49.85 16.58 49.91 16.49 50.04 16.41L52.49 15.12C52.55 15.08 52.62 15.06 52.67 15.06C52.77 15.06 52.86 15.13 52.93 15.27C53.18 15.75 53.53 16.14 53.99 16.42C54.44 16.71 54.97 16.85 55.57 16.85C56.08 16.85 56.5 16.74 56.82 16.51C57.14 16.28 57.31 15.99 57.31 15.63C57.31 15.35 57.21 15.12 57 14.95C56.79 14.78 56.53 14.64 56.21 14.53C55.9 14.43 55.44 14.31 54.83 14.17C53.87 13.95 53.07 13.71 52.45 13.47C51.82 13.22 51.28 12.82 50.83 12.25C50.38 11.68 50.15 10.92 50.15 9.94C50.15 8.96 50.38 8.16 50.85 7.45C51.31 6.75 51.98 6.2 52.85 5.82C53.72 5.44 54.73 5.25 55.89 5.25C57.2 5.25 58.34 5.53 59.32 6.08C60.3 6.63 61.07 7.45 61.63 8.55C61.66 8.61 61.67 8.66 61.67 8.72C61.67 8.83 61.61 8.92 61.48 9L59.1 10.25C59.04 10.29 58.98 10.31 58.93 10.31C58.82 10.31 58.73 10.24 58.65 10.1C58.38 9.63 58.02 9.26 57.57 8.99C57.12 8.72 56.61 8.59 56.05 8.59C55.54 8.59 55.13 8.7 54.81 8.92C54.5 9.14 54.34 9.42 54.34 9.78C54.34 10.05 54.44 10.27 54.65 10.44C54.86 10.61 55.12 10.75 55.45 10.85C55.77 10.95 56.23 11.07 56.81 11.2C57.79 11.41 58.6 11.64 59.24 11.89C59.87 12.14 60.43 12.54 60.89 13.11C61.35 13.68 61.59 14.46 61.59 15.45C61.59 16.44 61.35 17.27 60.87 18C60.39 18.73 59.71 19.29 58.83 19.68C57.95 20.07 56.92 20.27 55.74 20.27C54.38 20.27 53.2 19.99 52.21 19.42H52.23Z" fill="#232F3E"/>
<path d="M63.91 36.75H65.66C65.82 36.75 65.94 36.63 65.94 36.47V31.55C65.94 30.29 66.42 29.6 67.3 29.6C68.11 29.6 68.56 30.19 68.56 31.25V36.47C68.56 36.63 68.68 36.75 68.84 36.75H70.59C70.75 36.75 70.87 36.63 70.87 36.47V31.07C70.87 28.86 69.85 27.48 68.17 27.48C67.13 27.48 66.34 28.04 65.96 29.03H65.87L65.65 27.96C65.62 27.79 65.51 27.68 65.34 27.68H63.91C63.75 27.68 63.63 27.8 63.63 27.96V36.47C63.63 36.62 63.75 36.74 63.91 36.74V36.75ZM56.97 32.2C56.97 30.35 57.52 29.32 58.5 29.32C59.48 29.32 60.05 30.34 60.05 32.2C60.05 34.06 59.49 35.08 58.5 35.08C57.52 35.08 56.97 34.06 56.97 32.2ZM54.57 32.2C54.57 34.9 56.26 36.94 58.5 36.94C60.74 36.94 62.45 34.91 62.45 32.2C62.45 29.49 60.74 27.46 58.5 27.46C56.26 27.46 54.57 29.49 54.57 32.2ZM47.89 36.71C49.03 36.32 49.91 36.15 50.88 36.15C51.85 36.15 52.61 36.29 53.7 36.71C53.92 36.8 54.08 36.71 54.08 36.48V35.22C54.08 35.03 53.99 34.93 53.83 34.85C52.9 34.45 52.07 34.27 51.01 34.27C50.78 34.27 50.58 34.29 50.39 34.32L53.78 29.67C53.88 29.54 53.91 29.41 53.91 29.25V27.93C53.91 27.77 53.79 27.65 53.63 27.65H47.89C47.73 27.65 47.61 27.77 47.61 27.93V29.19C47.61 29.35 47.73 29.47 47.89 29.47H51.38L47.65 34.69C47.55 34.82 47.52 34.95 47.52 35.11V36.46C47.52 36.69 47.69 36.76 47.9 36.69L47.89 36.71ZM41.51 33.95C41.51 32.9 42.25 32.24 43.44 32.24C43.63 32.24 43.83 32.26 44.02 32.29V32.87C44.02 34.39 43.53 35.22 42.62 35.22C41.95 35.22 41.51 34.73 41.51 33.96V33.95ZM41.73 36.94C42.81 36.94 43.6 36.38 43.99 35.43H44.08L44.3 36.45C44.33 36.62 44.44 36.73 44.61 36.73H46.05C46.21 36.73 46.33 36.61 46.33 36.45V30.96C46.33 28.68 45.15 27.46 42.93 27.46C41.06 27.46 39.8 28.31 39.39 29.85C39.34 30.06 39.44 30.21 39.62 30.24L41.14 30.5C41.33 30.53 41.43 30.43 41.49 30.24C41.68 29.54 42.13 29.18 42.78 29.18C43.61 29.18 44.01 29.72 44.01 30.83V31.06C43.76 31.01 43.45 30.99 43.11 30.99C40.66 30.99 39.12 32.25 39.12 34.21C39.12 35.83 40.18 36.93 41.74 36.93L41.73 36.94ZM47.72 39C47.83 39.25 48.15 39.25 48.64 39.15C49.95 38.87 51.61 38.84 51.89 39.24C52.16 39.64 51.56 41.19 50.85 42.32C50.59 42.75 50.48 43.03 50.7 43.24C50.75 43.31 50.83 43.33 50.92 43.34C51.18 43.34 51.52 43.08 51.84 42.78C52.53 42.18 53.06 41.42 53.36 40.55C53.65 39.72 53.79 38.56 53.49 38.11C53.2 37.68 52.05 37.4 51.16 37.41C50.23 37.41 49.33 37.64 48.53 38.07C48.03 38.34 47.57 38.64 47.72 38.99V39ZM23.49 38.54C23.56 38.77 23.74 39.05 24 39.38C27.35 43.51 32.75 45.33 37.96 45.33C42.52 45.33 46.91 43.96 49.71 41.54C50.19 41.11 50.44 40.78 50.44 40.52C50.44 40.41 50.39 40.33 50.32 40.24C50.08 39.99 49.72 40.17 49.28 40.4C46.68 41.76 42.68 42.7 38.43 42.7C33.64 42.7 28.51 41.51 24.62 38.38C24.25 38.09 23.84 37.79 23.57 38.01C23.47 38.08 23.38 38.24 23.48 38.55L23.49 38.54ZM26.35 36.75H28.1C28.26 36.75 28.38 36.63 28.38 36.47V31.55C28.38 30.29 28.83 29.6 29.68 29.6C30.46 29.6 30.87 30.19 30.87 31.25V36.47C30.87 36.63 30.99 36.75 31.15 36.75H32.9C33.06 36.75 33.18 36.63 33.18 36.47V31.55C33.18 30.29 33.63 29.6 34.48 29.6C35.26 29.6 35.67 30.19 35.67 31.25V36.47C35.67 36.63 35.79 36.75 35.95 36.75H37.7C37.86 36.75 37.98 36.63 37.98 36.47V31.07C37.98 28.86 36.98 27.48 35.35 27.48C34.35 27.48 33.57 28.02 32.93 29.12H32.84C32.42 28.08 31.63 27.48 30.55 27.48C29.55 27.48 28.79 28.04 28.4 29.03H28.32L28.1 27.96C28.07 27.79 27.96 27.68 27.79 27.68H26.35C26.19 27.68 26.07 27.8 26.07 27.96V36.47C26.07 36.62 26.19 36.74 26.36 36.74L26.35 36.75ZM19.89 33.95C19.89 32.9 20.63 32.24 21.82 32.24C22.01 32.24 22.21 32.26 22.4 32.29V32.87C22.4 34.39 21.91 35.22 21 35.22C20.33 35.22 19.89 34.73 19.89 33.96V33.95ZM20.12 36.94C21.2 36.94 21.99 36.38 22.38 35.43H22.47L22.69 36.45C22.72 36.62 22.83 36.73 23 36.73H24.44C24.6 36.73 24.72 36.61 24.72 36.45V30.96C24.72 28.68 23.54 27.46 21.32 27.46C19.45 27.46 18.19 28.31 17.78 29.85C17.73 30.06 17.83 30.21 18.01 30.24L19.53 30.5C19.72 30.53 19.82 30.43 19.88 30.24C20.07 29.54 20.52 29.18 21.17 29.18C22 29.18 22.4 29.72 22.4 30.83V31.06C22.15 31.01 21.84 30.99 21.5 30.99C19.05 30.99 17.51 32.25 17.51 34.21C17.51 35.83 18.56 36.93 20.13 36.93L20.12 36.94Z" fill="#232F3E"/>
<path d="M2.6 36.94C1.04 36.94 0 35.84 0 34.22C0 32.27 1.54 31.01 3.97 31.01C4.32 31.01 4.63 31.03 4.87 31.08V30.85C4.87 29.74 4.46 29.2 3.63 29.2C2.97 29.2 2.55 29.56 2.35 30.26C2.3 30.46 2.19 30.55 2 30.52L0.49 30.26C0.3 30.23 0.21 30.07 0.26 29.87C0.66 28.34 1.93 27.48 3.79 27.48C6 27.48 7.18 28.7 7.18 30.97V36.45C7.18 36.61 7.06 36.73 6.9 36.73H5.46C5.29 36.73 5.19 36.62 5.15 36.45L4.93 35.43H4.84C4.45 36.39 3.66 36.94 2.59 36.94H2.6ZM3.49 35.22C4.39 35.22 4.88 34.39 4.88 32.88V32.3C4.69 32.27 4.5 32.25 4.3 32.25C3.11 32.25 2.37 32.91 2.37 33.96C2.37 34.74 2.8 35.22 3.48 35.22H3.49Z" fill="#232F3E"/>
<path d="M13.82 36.57C13.39 36.81 12.85 36.94 12.21 36.94C10.52 36.94 9.37 35.87 9.37 34.08V29.51H8.11C7.95 29.51 7.83 29.39 7.83 29.23V28.16C7.83 28.02 7.9 27.91 8.11 27.88L9.37 27.69L9.61 25.82C9.64 25.63 9.73 25.54 9.89 25.54H11.4C11.56 25.54 11.68 25.66 11.68 25.82V27.69H13.51C13.67 27.69 13.79 27.81 13.79 27.97V29.23C13.79 29.39 13.67 29.51 13.51 29.51H11.68V33.73C11.68 34.56 11.99 34.95 12.58 34.95C12.87 34.95 13.12 34.88 13.41 34.7C13.57 34.6 13.74 34.63 13.78 34.82L14.05 36.24C14.08 36.37 14.04 36.45 13.82 36.57Z" fill="#232F3E"/>
</g>
<defs>
<clipPath id="clip0_1_16">
<rect width="70.87" height="45.34" fill="white"/>
</clipPath>
</defs>
</svg>
